# xmcd
#
# Track frame offsets: 
#        150
#        11262
#        23615
#        39772
#        49345
#        68340
#        80800
#        96277
#        106452
#        119935
#        132357
#        142660
#        152990
#        166842
#        177065
#        191232
#        204577
#        218735
#        232797
#        244910
#        258315
#        269380
#
# Disc length: 3794 seconds
#
# Revision: 0
# Processed by: cddbd v1.5.2PL0 Copyright (c) Steve Scherf et al.
# Submitted via: ExactAudioCopy v0.99pb5
#
DISCID=2b0ed016
DTITLE=Rising Sons - Rising Sons featuring Taj Mahal and Ry Cooder
DYEAR=1992
DGENRE=Blues
TTITLE0=Statesboro Blues
TTITLE1=If the River Was Whiskey (Divin' Duck Blues)
TTITLE2=By and By (Poor Me)
TTITLE3=Candy Man
TTITLE4=2:10 Train
TTITLE5=Let the Good Times Roll
TTITLE6=44 Blues
TTITLE7=11th Street Overcrossing
TTITLE8=Corrin, Corrina [sic]
TTITLE9=Tulsa County
TTITLE10=Walkin' Down the Line
TTITLE11=The Girl With Green Eyes
TTITLE12=Sunny's Dream
TTITLE13=Spanish Lace Blues
TTITLE14=The Devil's Got My Woman
TTITLE15=Take a Giant Step
TTITLE16=Flyin' So High
TTITLE17=Dust My Broom
TTITLE18=Last Fair Deal Gone Down
TTITLE19=Baby, What You Want Me To Do
TTITLE20=Statesboro Blues
TTITLE21=I Got A Little
EXTD=
EXTT0=
EXTT1=
EXTT2=
EXTT3=
EXTT4=
EXTT5=
EXTT6=
EXTT7=
EXTT8=
EXTT9=
EXTT10=
EXTT11=
EXTT12=
EXTT13=
EXTT14=
EXTT15=
EXTT16=
EXTT17=
EXTT18=
EXTT19=
EXTT20=
EXTT21=
PLAYORDER=
